<mxfile host="65bd71144e" modified="2021-01-06T23:18:33.046Z" agent="5.0 (Windows NT 10.0; Win64; x64) AppleWebKit/537.36 (KHTML, like Gecko) Code/1.52.1 Chrome/83.0.4103.122 Electron/9.3.5 Safari/537.36" version="13.10.0" etag="b3d7-V2CYHJZNqJTvwju" type="embed">
    <diagram id="Ommx61FZwahdnMrhAKVO" name="Page-1">
        <mxGraphModel dx="1141" dy="790" grid="1" gridSize="10" guides="1" tooltips="1" connect="1" arrows="1" fold="1" page="1" pageScale="1" pageWidth="827" pageHeight="1169" math="0" shadow="0">
            <root>
                <mxCell id="0"/>
                <mxCell id="1" parent="0"/>
                <mxCell id="8" value="" style="line;strokeWidth=1;direction=south;html=1;dashed=1;dashPattern=20 20;" vertex="1" parent="1">
                    <mxGeometry x="320" y="50" width="10" height="500" as="geometry"/>
                </mxCell>
                <mxCell id="9" value="NETWORK" style="text;align=left;" vertex="1" parent="1">
                    <mxGeometry x="210" y="40" width="60" height="20" as="geometry"/>
                </mxCell>
                <mxCell id="10" value="DLL" style="text;align=center;" vertex="1" parent="1">
                    <mxGeometry x="370" y="40" width="60" height="20" as="geometry"/>
                </mxCell>
                <mxCell id="13" value="" style="line;strokeWidth=1;direction=south;html=1;dashed=1;dashPattern=20 20;" vertex="1" parent="1">
                    <mxGeometry x="470" y="50" width="10" height="500" as="geometry"/>
                </mxCell>
                <mxCell id="14" value="PHYSICAL" style="text;align=left;" vertex="1" parent="1">
                    <mxGeometry x="530" y="40" width="60" height="20" as="geometry"/>
                </mxCell>
            </root>
        </mxGraphModel>
    </diagram>
</mxfile>